<svg width="512" height="314" xmlns="http://www.w3.org/2000/svg">

 <g>
  <title>background</title>
  <rect fill="none" id="canvas_background" height="316" width="514" y="-1" x="-1"/>
 </g>
 <g>
  <title>Layer 1</title>
  <g id="svg_1">
   <g id="svg_2">
    <g id="svg_3">
     <g id="svg_4">
      <path id="svg_5" fill="#132651" d="m448,187.746009c-4.418,0 -8,3.582 -8,8l0,56.056l-12.728,0c-3.137,-27.747 -28.173,-47.697 -55.919,-44.561c-23.426,2.648 -41.912,21.135 -44.561,44.561l-166.792,0l0,-232l280,0l0,25.16c0,4.418 3.582,8 8,8s8,-3.582 8,-8l0,-33.16c0,-4.418 -3.582,-8 -8,-8l-296,0c-4.418,0 -8,3.582 -8,8l0,8l-91.616,0c-20.083,0.026 -36.358,16.3 -36.384,36.384l0,11.616c0,4.418 3.582,8 8,8l9.304,0l-6.104,73.32c-15.975,4.158 -27.144,18.556 -27.2,35.064l0,67.616c0,4.418 3.582,8 8,8l16.2,0c2.193,28.608 27.163,50.022 55.771,47.829c25.56,-1.959 45.869,-22.269 47.829,-47.829c0.072,0 0.128,0.04 0.2,0.04l16,0c0,4.418 3.582,8 8,8l175.52,0c5.699,27.345 32.487,44.892 59.832,39.193c19.697,-4.105 35.087,-19.496 39.192,-39.193l21.456,0c4.418,0 8,-3.582 8,-8l0,-64.096c0,-4.419 -3.582,-8 -8,-8zm-372,104.056c-19.882,0 -36,-16.118 -36,-36s16.118,-36 36,-36s36,16.118 36,36c-0.022,19.873 -16.127,35.978 -36,36zm68,-48l-16,0c-0.469,0.049 -0.933,0.142 -1.384,0.28c-6.434,-27.953 -34.31,-45.397 -62.262,-38.963c-19.274,4.436 -34.355,19.434 -38.898,38.683l-9.456,0l0,-59.616c0.013,-11.252 9.132,-20.371 20.384,-20.384l107.616,0l0,80zm0,-96l-100.64,0l6,-72l94.64,0l0,72zm0,-88l-112,0l0,-3.616c0.013,-11.252 9.132,-20.371 20.384,-20.384l91.616,0l0,24zm267.555,199.68c-1.028,18.302 -16.185,32.607 -34.515,32.576l-0.008,0c-16.785,-0.037 -31.117,-12.126 -33.984,-28.664c1.402,-2.45 1.242,-5.494 -0.408,-7.784c1.069,-19.03 17.363,-33.591 36.394,-32.522c19.03,1.069 33.591,17.363 32.521,36.394z"/>
      <path id="svg_6" fill="#132651" d="m440,67.802009l-112,0c-4.418,0 -8,3.582 -8,8s3.582,8 8,8l112,0c4.418,0 8,-3.582 8,-8s-3.582,-8 -8,-8z"/>
      <path id="svg_7" fill="#132651" d="m456,155.802009l-176,0c-4.418,0 -8,3.582 -8,8s3.582,8 8,8l176,0c4.418,0 8,-3.582 8,-8s-3.582,-8 -8,-8z"/>
      <path id="svg_8" fill="#132651" d="m440,107.802009l-88,0c-4.418,0 -8,3.582 -8,8s3.582,8 8,8l88,0c4.418,0 8,-3.582 8,-8s-3.582,-8 -8,-8z"/>
      <path id="svg_9" fill="#132651" d="m472,83.802009l16,0c4.418,0 8,-3.582 8,-8s-3.582,-8 -8,-8l-16,0c-4.418,0 -8,3.582 -8,8s3.582,8 8,8z"/>
      <path id="svg_10" fill="#132651" d="m496,155.802009l-16,0c-4.418,0 -8,3.582 -8,8s3.582,8 8,8l16,0c4.418,0 8,-3.582 8,-8s-3.582,-8 -8,-8z"/>
      <path id="svg_11" fill="#132651" d="m504,107.802009l-32,0c-4.418,0 -8,3.582 -8,8s3.582,8 8,8l32,0c4.418,0 8,-3.582 8,-8s-3.582,-8 -8,-8z"/>
     </g>
    </g>
   </g>
   <g id="svg_12"/>
   <g id="svg_13"/>
   <g id="svg_14"/>
   <g id="svg_15"/>
   <g id="svg_16"/>
   <g id="svg_17"/>
   <g id="svg_18"/>
   <g id="svg_19"/>
   <g id="svg_20"/>
   <g id="svg_21"/>
   <g id="svg_22"/>
   <g id="svg_23"/>
   <g id="svg_24"/>
   <g id="svg_25"/>
   <g id="svg_26"/>
  </g>
 </g>
</svg>